/* XPM */
static char *_375c82a89704631eaf91f1d9b1bf152NMFOzmyUyc8fxwPr[] = {
/* columns rows colors chars-per-pixel */
"64 64 12 1 ",
"  c #EC407A",
". c #F2D811",
"X c #FFEB3B",
"o c #FFAB40",
"O c #FFB74D",
"+ c #FF4081",
"@ c #F06292",
"# c #79B8E8",
"$ c #7CC2F7",
"% c #FF80AB",
"& c #90CAF9",
"* c #FADCF2",
/* pixels */
"****************************************************************",
"****************************************************************",
"****************************************************************",
"****************************************************************",
"****************************************************************",
"****************************************************************",
"****************************************************************",
"****************************************************************",
"****************************************************************",
"****************************************************************",
"****************************************************************",
"****************************************************************",
"****************************************************************",
"****************************************************************",
"****************************************************************",
"****************************************************************",
"****************************************************************",
"****************************************************************",
"****************************************************************",
"****************************************************************",
"****************************************************************",
"****************************************************************",
"****************************************************************",
"*************************************ooooooooooooooo************",
"************************************oOOOOOOOOOOOOOOoo***********",
"*****************************..****@@@@@OOOOOOOOOOOOOoo*********",
"****************************.XX.*@@%%%%%@@@OOO@@@@@@@@@*********",
"****************************.XX.@@%%%%%%%%@@O@@%%%%%%%@@*..*****",
"*****************************..@% ++ % + %%@@%%   %%  %%@XX.****",
"****************************oO@@% +++ ++ %%@%%  +  % + %@XX.****",
"****************************oO@%% ++++++ %@@%% ++++ ++ %@..*****",
"****************************oO@%%%  +++ %%@%%%  +++++  %@OOo****",
"****************************o@%%%%% ++ %%%@%%%%  ++++ %%@OOo****",
"****************************o@%%%%%%  %%%%@%%%%%  ++ %%%@OOo****",
"**************************#############%%%@%%%%%%% %%%%%@OOo****",
"************************###&&&&&&&&&&&#######%%%%%%%%%%@@OOo****",
"**********************###$$$$$$$$$$$$&&&&&&&########%%%@oOOo****",
"********************###$$$$$$$$$$$$$$$$$$$$$&&&&&&&&###OoOOo****",
"******************###$$$$$$$$$$$$$$$$$$$$$$$$$$$$$$&&&#OoOOo****",
"*******..*****###$$$$$$$$$$$$$$$$$$$$$$$$$$$$$$$$$$$$&#OoOOo****",
"******.XX.**###$$$$$$$$$$$$$$$$$$$$$$$$$$$$$$$$$$$$$$&#OoOOo****",
"******.XX.*##$$$$$$$$$$$$$$$$$$$$..$$$$$$$$$$$$$$$$$$&#OoOOo****",
"*******..*##$$$$$$$$$$$$$$$$$$$$.XX.$$$$$$$$$$$$$$$$$&#OoOOo****",
"******oOO##$$$$$$$$$$$$$$$$$$$$$.XX.$$$$$$$$$$$$$$$$$&#OoOOo****",
"******oOO#$$$$$$$$$$$$$$$$$$$$$$$..$$$$$$$$$$$$$$$$$$&#OoOOo****",
"******oOO#$$$$$$$$$$$$$$$$$$$$$$oOOo$$$$$$$$$$$$$$$$$&#OoOOo****",
"******oOOoooo$$$$$$$$$$$$$$$$$$$oOOo$$$$$$$$$$$$$$$$$&#OoOOo****",
"******oOOoOOOoooooo$$$$$$$$$$$$$oOOo$$$$$$$$$$$$$$$$$&#OoOOo****",
"******oOOoOOOOOOOOOooooooo$$$$$$oOOo$$$$$$$$$$$$$$$$$&##oOOo****",
"******oOOoOOOOOOOOOOOOOOOOoooooooOOo$$$$$$$$$$$$$$$$$$&#oOOo****",
"******oOOoOOOOOOOOOOOOOOOOOOOOOOoOOo$$$$$$$$$$$$$$$$$$&##OOo****",
"******oOOoOOOOOOOOOOOOOOOOOOOOOOoOOo$$$$$$$$$$$$$$$$$$&&##o*****",
"******oOOoOOOOOOOOOOOOOOOOOOOOOOoOOo$$$$$$$$$$$$$$$$$&&&&#******",
"******oOOoOOOOOOOOOOOOOOOOOOOOOOoOOo$$$$$$$$$$$$$$&&&&&&&#******",
"******oOOoOOOOOOOOOOOOOOOOOOOOOOoOOo$$$$$$$$$$$$$&&&&&####******",
"******oOOoOOOOOOOOOOOOOOOOOOOOOOoOOo$$$$$$$$$&&&&&&##***********",
"******oOOoOOOOOOOOOOOOOOOOOOOOOOoOOo$$$$$$$&&&&&####************",
"******oOOoOOOOOOOOOOOOOOOOOOOOOOoOOo$$$$$$&&&&&###**************",
"******oOOoooOOOOOOOOOOOOOOOOOOOOoOOo$$$$$$&&&###****************",
"******oOOo**oooooooOOOOOOOOOOOOOoOOo$$$$&&&####*****************",
"***************oooooooooooOOOOOOoOOo&&&&&&##********************",
"**************************oooooooOOo#&&&&#**********************",
"*********************************oo*######**********************",
"****************************************************************"
};
