/* XPM */
static char *_44a03b22b414e129b3171bf991ed4d9UhMqqvUiA6YtKHt5[] = {
/* columns rows colors chars-per-pixel */
"64 64 21 1 ",
"  c #665C64",
". c #EC407A",
"X c #F2D811",
"o c #FFEB3B",
"O c #FFAB40",
"+ c #FFB74D",
"@ c #FF4081",
"# c #F06292",
"$ c #D173A2",
"% c #79B8E8",
"& c #7CC2F7",
"* c #8C878B",
"= c #9E999E",
"- c #BDB9BD",
"; c #FF80AB",
": c #E887B6",
"> c #E394BA",
", c #FFA8E1",
"< c #90CAF9",
"1 c #FADCF2",
"2 c white",
/* pixels */
"1111111111111111111111111111111111111111111111111111111111111111",
"1111111111111111111111111111111111111111111111111111111111111111",
"1111111111111111111111111111111111111111111111111111111111111111",
"1111111111111111111111111111111111111111111111111111111111111111",
"1111111111111111111111111111111111111111111111111111111111111111",
"1111111111111111111111111111111111111111111111111111111111111111",
"1111111111111111111111111111111111111111111111111111111111111111",
"1111111111111111111111111111111111111111111111111111111111111111",
"1111111111111111111111111111111111111111111111111111111111111111",
"1111111111111111111111111111111111111111111111111111111111111111",
"1111111111111111111111111111111111111111111111111111111111111111",
"1111111111111111111111111111111111111111111111111111111111111111",
"1111111111111111111111111111111111111111111111111111111111111111",
"1111111111111111111111111111111111111111111111111111111111111111",
"1111111111111111111111111111111111111111111111111111111111111111",
"1111111111111111111111111111111111111111111111111111111111111111",
"1111111111111111111111111111111111111111111111111111111111111111",
"1111111111111111111111111111111111111111111111111111111111111111",
"1111111111111111111111111111111111111111111111111111111111111111",
"1111111111111111111111111111111111111111111111111111111111111111",
"1111111111111111111111111111111111111111111111111111111111111111",
"1111111111111111111111111111111111111111111111111111111111111111",
"1111111111111111111111111111111111111111111111111111111111111111",
"1111111111111111111111111111111111111OOOOOOOOOOOOOOO111111111111",
"111111111111111111111111111111111111O++++++++++++++OO11111111111",
"11111111111111111111111111111XX1111#####+++++++++++++OO111111111",
"1111111111111111111111111111XooX1##;;;;;###+++#########111111111",
"1111111111111111111111**1111XooX##;;;;;**;##+##;;;;;;;##1XX11111",
"111111111111111111111*--*1111XX#;.@@.;*--*;##;;...;;..;;#ooX1111",
"111111111111111111111*---*11O+##;.@@@*---*;#;;..@..;.@.;#ooX1111",
"111111111111111111111*-,--*1*******@*--,-*##;;.@@@@.@@.;#XX11111",
"111111111111111111111*-,,-**-=-=-=-**-,,-*#;;;..@@@@@..;#++O1111",
"111111111111111111111*-,,----=-=-=----,,-*#;;;;..@@@@.;;#++O1111",
"111111111111111111111*-,,,---=-=-=---,,,-*#;;;;;..@@.;;;#++O1111",
"111111111111111111111*--,,-----=-----,,--*#;;;;;;;.;;;;;#++O1111",
"1111111111111111111111*---- ---=--- ----*%%%%;;;;;;;;;;##++O1111",
"1111111111111111111111**-- - ----- - --**<<<%%%%%%%%;;;#O++O1111",
"1111111111111111111***-------------------***<<<<<<<<%%%+O++O1111",
"111111111111111111%%%-=------->>>-------=-&&&&&&&&&<<<%+O++O1111",
"1111111XX11111%%%&&***-==>>---->---->>==-***&&&&&&&&&<%+O++O1111",
"111111XooX11%%%&&&&&&-=-->>- -- -- ->>--=-&&&&&&&&&&&<%+O++O1111",
"111111XooX1%%&&&&&&***-------  -  -------***&&&&&&&&&<%+O++O1111",
"1111111XX1%%&&&&&&&&&::::::---------::::::&&&&&&&&&&&<%+O++O1111",
"111111O++%%&&&&&&&&&&::::::::-----::::::::&&&&&&&&&&&<%+O++O1111",
"111111O++%&&&&&&&&&&&::$$$$::$:::$::$$$$::&&&&&&&&&&&<%+O++O1111",
"111111O++%&&&&&&&&&&&:::::$$$:::::$$$:::::&&&&&&&&&&&<%+O++O1111",
"111111O++OOOO&&&&&&**:::$$::$:::::$::$$:::&&&&&&&&&&&<%+O++O1111",
"111111O++O+++OOOOO*--:::::::$:::::$:::::::&&&&&&&&&&&<%+O++O1111",
"111111O++O+++++++*---:::::$::::::::$::::::&&&&&&&&&&&<%%O++O1111",
"111111O++O+++++++*---:$$$$--:$:$:$--$$$$$:&&&&&&&&&&&&<%O++O1111",
"111111O++O+++++++*---*++*--:::$2$::---*&&&&&&&&&&&&&&&<%%++O1111",
"111111O++O+++++++*---*+*-=$:::-2-::$-=-*&&&&&&&&&&&&&&<<%%O11111",
"111111O++O+++++++*----*-==::::---:::-==-*&&&&&&&&&&&&<<<<%111111",
"111111O++O+++++++*=---*==:::::---::::===*&&&&&&&&&<<<<<<<%111111",
"111111O++O++++++++*=--*==::::$- -$:::===*&&&&&&&&<<<<<%%%%111111",
"111111O++O++++++++**=-*==:::$$- -$$::===*&&&&<<<<<<%%11111111111",
"111111O++O++++++++++***==== --- --- ====*&&<<<<<%%%%111111111111",
"111111O++O+++++++++++++*==== =- -= ====*&&<<<<<%%%11111111111111",
"111111O++OOO++++++++++++*=- =-- --= -=*&&&<<<%%%1111111111111111",
"111111O++O11OOOOOOO++++*--- --- --- ---*<<<%%%%11111111111111111",
"111111111111111OOOOOOOO*****************<<%%11111111111111111111",
"11111111111111111111111111OOOOOOO++O%<<<<%1111111111111111111111",
"111111111111111111111111111111111OO1%%%%%%1111111111111111111111",
"1111111111111111111111111111111111111111111111111111111111111111"
};
