/* XPM */
static char *_284d71dd9dd48fa8a5fc7508e57c708RndfVpIw0Zu7t3Io[] = {
/* columns rows colors chars-per-pixel */
"64 64 11 1 ",
"  c None",
". c #665C64",
"X c #D173A2",
"o c #8C878B",
"O c #9E999E",
"+ c #BDB9BD",
"@ c #E887B6",
"# c #E394BA",
"$ c #FFA8E1",
"% c #FADCF2",
"& c white",
/* pixels */
"%%%%%%%%%%%%%%%%%%%%%%%%%%%%%%%%%%%%%%%%%%%%%%%%%%%%%%%%%%%%%%%%",
"%%%%%%%%%%%%%%%%%%%%%%%%%%%%%%%%%%%%%%%%%%%%%%%%%%%%%%%%%%%%%%%%",
"%%%%%%%%%%%%%%%%%%%%%%%%%%%%%%%%%%%%%%%%%%%%%%%%%%%%%%%%%%%%%%%%",
"%%%%%%%%%%%%%%%%%%%%%%%%%%%%%%%%%%%%%%%%%%%%%%%%%%%%%%%%%%%%%%%%",
"%%%%%%%%%%%%%%%%%%%%%%%%%%%%%%%%%%%%%%%%%%%%%%%%%%%%%%%%%%%%%%%%",
"%%%%%%%%%%%%%%%%%%%%%%%%%%%%%%%%%%%%%%%%%%%%%%%%%%%%%%%%%%%%%%%%",
"%%%%%%%%%%%%%%%%%%%%%%%%%%%%%%%%%%%%%%%%%%%%%%%%%%%%%%%%%%%%%%%%",
"%%%%%%%%%%%%%%%%%%%%%%%%%%%%%%%%%%%%%%%%%%%%%%%%%%%%%%%%%%%%%%%%",
"%%%%%%%%%%%%%%%%%%%%%%%%%%%%%%%%%%%%%%%%%%%%%%%%%%%%%%%%%%%%%%%%",
"%%%%%%%%%%%%%%%%%%%%%%%%%%%%%%%%%%%%%%%%%%%%%%%%%%%%%%%%%%%%%%%%",
"%%%%%%%%%%%%%%%%%%%%%%%%%%%%%%%%%%%%%%%%%%%%%%%%%%%%%%%%%%%%%%%%",
"%%%%%%%%%%%%%%%%%%%%%%%%%%%%%%%%%%%%%%%%%%%%%%%%%%%%%%%%%%%%%%%%",
"%%%%%%%%%%%%%%%%%%%%%%%%%%%%%%%%%%%%%%%%%%%%%%%%%%%%%%%%%%%%%%%%",
"%%%%%%%%%%%%%%%%%%%%%%%%%%%%%%%%%%%%%%%%%%%%%%%%%%%%%%%%%%%%%%%%",
"%%%%%%%%%%%%%%%%%%%%%%%%%%%%%%%%%%%%%%%%%%%%%%%%%%%%%%%%%%%%%%%%",
"%%%%%%%%%%%%%%%%%%%%%%%%%%%%%%%%%%%%%%%%%%%%%%%%%%%%%%%%%%%%%%%%",
"%%%%%%%%%%%%%%%%%%%%%%%%%%%%%%%%%%%%%%%%%%%%%%%%%%%%%%%%%%%%%%%%",
"%%%%%%%%%%%%%%%%%%%%%%%%%%%%%%%%%%%%%%%%%%%%%%%%%%%%%%%%%%%%%%%%",
"%%%%%%%%%%%%%%%%%%%%%%%%%%%%%%%%%%%%%%%%%%%%%%%%%%%%%%%%%%%%%%%%",
"%%%%%%%%%%%%%%%%%%%%%%%%%%%%%%%%%%%%%%%%%%%%%%%%%%%%%%%%%%%%%%%%",
"%%%%%%%%%%%%%%%%%%%%%%%%%%%%%%%%%%%%%%%%%%%%%%%%%%%%%%%%%%%%%%%%",
"%%%%%%%%%%%%%%%%%%%%%%%%%%%%%%%%%%%%%%%%%%%%%%%%%%%%%%%%%%%%%%%%",
"%%%%%%%%%%%%%%%%%%%%%%%%%%%%%%%%%%%%%%%%%%%%%%%%%%%%%%%%%%%%%%%%",
"%%%%%%%%%%%%%%%%%%%%%%%%%%%%%%%%%%%%%%%%%%%%%%%%%%%%%%%%%%%%%%%%",
"%%%%%%%%%%%%%%%%%%%%%%%%%%%%%%%%%%%%%%%%%%%%%%%%%%%%%%%%%%%%%%%%",
"%%%%%%%%%%%%%%%%%%%%%%%%%%%%%%%%%%%%%%%%%%%%%%%%%%%%%%%%%%%%%%%%",
"%%%%%%%%%%%%%%%%%%%%%%%%%%%%%%%%%%%%%%%%%%%%%%%%%%%%%%%%%%%%%%%%",
"%%%%%%%%%%%%%%%%%%%%%%oo%%%%%%%%%%%%%%%oo%%%%%%%%%%%%%%%%%%%%%%%",
"%%%%%%%%%%%%%%%%%%%%%o++o%%%%%%%%%%%%%o++o%%%%%%%%%%%%%%%%%%%%%%",
"%%%%%%%%%%%%%%%%%%%%%o+++o%%%%%%%%%%%o+++o%%%%%%%%%%%%%%%%%%%%%%",
"%%%%%%%%%%%%%%%%%%%%%o+$++o%ooooooo%o++$+o%%%%%%%%%%%%%%%%%%%%%%",
"%%%%%%%%%%%%%%%%%%%%%o+$$+oo+O+O+O+oo+$$+o%%%%%%%%%%%%%%%%%%%%%%",
"%%%%%%%%%%%%%%%%%%%%%o+$$++++O+O+O++++$$+o%%%%%%%%%%%%%%%%%%%%%%",
"%%%%%%%%%%%%%%%%%%%%%o+$$$+++O+O+O+++$$$+o%%%%%%%%%%%%%%%%%%%%%%",
"%%%%%%%%%%%%%%%%%%%%%o++$$+++++O+++++$$++o%%%%%%%%%%%%%%%%%%%%%%",
"%%%%%%%%%%%%%%%%%%%%%%o++++.+++O+++.++++o%%%%%%%%%%%%%%%%%%%%%%%",
"%%%%%%%%%%%%%%%%%%%%%%oo++.+.+++++.+.++oo%%%%%%%%%%%%%%%%%%%%%%%",
"%%%%%%%%%%%%%%%%%%%ooo+++++++++++++++++++ooo%%%%%%%%%%%%%%%%%%%%",
"%%%%%%%%%%%%%%%%%%%%%+O+++++++###+++++++O+%%%%%%%%%%%%%%%%%%%%%%",
"%%%%%%%%%%%%%%%%%%%ooo+OO##++++#++++##OO+ooo%%%%%%%%%%%%%%%%%%%%",
"%%%%%%%%%%%%%%%%%%%%%+O++##+.++.++.+##++O+%%%%%%%%%%%%%%%%%%%%%%",
"%%%%%%%%%%%%%%%%%%%ooo+++++++..+..+++++++ooo%%%%%%%%%%%%%%%%%%%%",
"%%%%%%%%%%%%%%%%%%%%%@@@@@@+++++++++@@@@@@%%%%%%%%%%%%%%%%%%%%%%",
"%%%%%%%%%%%%%%%%%%%%%@@@@@@@@+++++@@@@@@@@%%%%%%%%%%%%%%%%%%%%%%",
"%%%%%%%%%%%%%%%%%%%%%@@XXXX@@X@@@X@@XXXX@@%%%%%%%%%%%%%%%%%%%%%%",
"%%%%%%%%%%%%%%%%%%%%%@@@@@XXX@@@@@XXX@@@@@%%%%%%%%%%%%%%%%%%%%%%",
"%%%%%%%%%%%%%%%%%%%oo@@@XX@@X@@@@@X@@XX@@@%%%%%%%%%%%%%%%%%%%%%%",
"%%%%%%%%%%%%%%%%%%o++@@@@@@@X@@@@@X@@@@@@@%%%%%%%%%%%%%%%%%%%%%%",
"%%%%%%%%%%%%%%%%%o+++@@@@@X@@@@@@@@X@@@@@@%%%%%%%%%%%%%%%%%%%%%%",
"%%%%%%%%%%%%%%%%%o+++@XXXX++@X@X@X++XXXXX@%%%%%%%%%%%%%%%%%%%%%%",
"%%%%%%%%%%%%%%%%%o+++o%%o++@@@X&X@@+++o%%%%%%%%%%%%%%%%%%%%%%%%%",
"%%%%%%%%%%%%%%%%%o+++o%o+OX@@@+&+@@X+O+o%%%%%%%%%%%%%%%%%%%%%%%%",
"%%%%%%%%%%%%%%%%%o++++o+OO@@@@+++@@@+OO+o%%%%%%%%%%%%%%%%%%%%%%%",
"%%%%%%%%%%%%%%%%%oO+++oOO@@@@@+++@@@@OOOo%%%%%%%%%%%%%%%%%%%%%%%",
"%%%%%%%%%%%%%%%%%%oO++oOO@@@@X+.+X@@@OOOo%%%%%%%%%%%%%%%%%%%%%%%",
"%%%%%%%%%%%%%%%%%%ooO+oOO@@@XX+.+XX@@OOOo%%%%%%%%%%%%%%%%%%%%%%%",
"%%%%%%%%%%%%%%%%%%%%oooOOOO.+++.+++.OOOOo%%%%%%%%%%%%%%%%%%%%%%%",
"%%%%%%%%%%%%%%%%%%%%%%%oOOOO.O+.+O.OOOOo%%%%%%%%%%%%%%%%%%%%%%%%",
"%%%%%%%%%%%%%%%%%%%%%%%%oO+.O++.++O.+Oo%%%%%%%%%%%%%%%%%%%%%%%%%",
"%%%%%%%%%%%%%%%%%%%%%%%o+++.+++.+++.++ o%%%%%%%%%%%%%%%%%%%%%%%%",
"%%%%%%%%%%%%%%%%%%%%%%%ooooooooooooooooo%%%%%%%%%%%%%%%%%%%%%%%%",
"%%%%%%%%%%%%%%%%%%%%%%%%%%%%%%%%%%%%%%%%%%%%%%%%%%%%%%%%%%%%%%%%",
"%%%%%%%%%%%%%%%%%%%%%%%%%%%%%%%%%%%%%%%%%%%%%%%%%%%%%%%%%%%%%%%%",
"%%%%%%%%%%%%%%%%%%%%%%%%%%%%%%%%%%%%%%%%%%%%%%%%%%%%%%%%%%%%%%%%"
};
