/* XPM */
static char *_ed0765d5e224080cba1c879eace626eUa0tnea3qZ1gvFwx[] = {
/* columns rows colors chars-per-pixel */
"64 64 9 1 ",
"  c None",
". c #665C64",
"X c #8C878B",
"o c #9E999E",
"O c #BDB9BD",
"+ c #E394BA",
"@ c #FFA8E1",
"# c #FADCF2",
"$ c white",
/* pixels */
"################################################################",
"################################################################",
"################################################################",
"################################################################",
"################################################################",
"################################################################",
"################################################################",
"################################################################",
"################################################################",
"################################################################",
"################################################################",
"################################################################",
"################################################################",
"################################################################",
"################################################################",
"################################################################",
"################################################################",
"################################################################",
"################################################################",
"################################################################",
"################################################################",
"################################################################",
"################################################################",
"################################################################",
"################################################################",
"################################################################",
"################################################################",
"######################XX###############XX#######################",
"#####################XOOX#############XOOX######################",
"#####################XOOOX###########XOOOX######################",
"#####################XO@OOX#XXXXXXX#XOO@OX######################",
"#####################XO@@OXXOoOoOoOXXO@@OX######################",
"#####################XO@@OOOOoOoOoOOOO@@OX######################",
"#####################XO@@@OOOoOoOoOOO@@@OX######################",
"#####################XOO@@OOOOOoOOOOO@@OOX######################",
"######################XOOOO.OOOoOOO.OOOOX#######################",
"######################XXOO.O.OOOOO.O.OOXX#######################",
"###################XXXOOOOOOOOOOOOOOOOOOOXXX####################",
"#####################OoOOOOOOO+++OOOOOOOoO######################",
"###################XXXOoo++OOOO+OOOO++ooOXXX####################",
"#####################OoOO++O.OO.OO.O++OOoO######################",
"###################XXXOOOOOOO..O..OOOOOOOXXX####################",
"######################XOOOOOOOOOOOOOOOOOX#######################",
"#######################XOOOOOOOOOOOOOOOX########################",
"########################XXoOOOOOOOOOoXX#########################",
"#####################XXXO XOO.....OOX###########################",
"###################XXOOOXOoOOOOOOOOOoX##########################",
"##################XOOOOOXOOoOOOOOOOoOX##########################",
"#################XOOOOX#XOOOO$$O$$OOOOX#########################",
"#################XOOOOX#XOOOO$$$$$OOOOX#########################",
"#################XOOOX##XOOOOO$$$OOOOOX#########################",
"#################XOOOX#XOoOOOOO$OOOOOoOX########################",
"#################XOOOOXOooOoOOOOOOOoOooOX#######################",
"#################XoOOOXooo.OOOOOOOOO.oooX#######################",
"##################XoOOXooo.OOOO.OOOO.oooX#######################",
"##################XXoOXoooo.ooO.Ooo.ooooX#######################",
"####################XXXoooo.OOO.OOO.ooooX#######################",
"#######################Xoooo.oO.Oo.ooooX########################",
"########################XoO.oOO.OOo.OoX#########################",
"#######################XOOO.OOO.OOO.OO X########################",
"#######################XXXXXXXXXXXXXXXXX########################",
"################################################################",
"################################################################",
"################################################################"
};
